<svg xmlns="http://www.w3.org/2000/svg" width="200" height="200" viewBox="0 0 200 200">
  <defs>
    <style>
      .cls-1 { fill: #fff; fill-rule: evenodd; }
    </style>
  </defs>
  <path id="Forme_1" data-name="Forme 1" class="cls-1" d="M100 18.02c26.7 0 29.86.1 40.41.59 9.75.44 15.04 2.07 18.56 3.44a33.1 33.1 0 0 1 18.98 18.98c1.37 3.52 3 8.81 3.44 18.56.48 10.55.59 13.71.59 40.41s-.11 29.86-.59 40.41c-.44 9.75-2.07 15.04-3.44 18.56a33.1 33.1 0 0 1-18.98 18.98c-3.52 1.37-8.81 3-18.56 3.44-10.55.48-13.71.59-40.41.59s-29.86-.11-40.41-.59c-9.74-.44-15.04-2.07-18.56-3.44a33.1 33.1 0 0 1-18.98-18.98c-1.37-3.52-3-8.81-3.44-18.56-.48-10.55-.59-13.71-.59-40.41s.11-29.86.59-40.41c.44-9.75 2.07-15.04 3.44-18.56a33.1 33.1 0 0 1 18.98-18.98c3.52-1.37 8.82-3 18.56-3.44 10.55-.49 13.71-.59 40.41-.59m0-18.01c-27.16 0-30.56.11-41.23.6-10.64.48-17.91 2.17-24.27 4.65A51.1 51.1 0 0 0 5.26 34.5C2.78 40.86 1.09 48.13.61 58.77.12 69.44.01 72.84.01 100s.11 30.56.6 41.23c.48 10.64 2.17 17.91 4.65 24.27a51.1 51.1 0 0 0 29.24 29.24c6.36 2.48 13.63 4.17 24.27 4.65 10.67.49 14.07.6 41.23.6s30.56-.11 41.23-.6c10.64-.48 17.91-2.17 24.27-4.65a51.1 51.1 0 0 0 29.24-29.24c2.48-6.36 4.17-13.63 4.65-24.27.49-10.67.6-14.07.6-41.23s-.11-30.56-.6-41.23c-.48-10.64-2.17-17.91-4.65-24.27A51.1 51.1 0 0 0 165.5 5.26c-6.36-2.48-13.63-4.17-24.27-4.65-10.67-.49-14.07-.6-41.23-.6zm0 48.64A51.35 51.35 0 1 0 151.35 100 51.35 51.35 0 0 0 100 48.65zm0 84.68A33.33 33.33 0 1 1 133.33 100 33.327 33.327 0 0 1 100 133.33zm65.38-86.71a12 12 0 1 1-12-12 12 12 0 0 1 12 12z"/>
</svg>
